<svg width="498" height="226" viewBox="0 0 498 226" fill="none" xmlns="http://www.w3.org/2000/svg">
<path d="M213.058 220.262C212.105 220.262 211.446 220.071 211.082 219.69C210.718 219.326 210.527 218.849 210.51 218.26C210.51 217.757 210.605 217.159 210.796 216.466C211.004 215.755 211.212 215.079 211.42 214.438C211.975 212.791 212.555 211.188 213.162 209.628C213.786 208.068 214.393 206.595 214.982 205.208C215.589 203.804 216.126 202.53 216.594 201.386C215.415 201.403 214.393 201.438 213.526 201.49C212.677 201.542 211.897 201.611 211.186 201.698C210.475 201.767 209.739 201.871 208.976 202.01C209.063 201.282 209.401 200.727 209.99 200.346C210.597 199.947 211.403 199.67 212.408 199.514C213.413 199.358 214.566 199.28 215.866 199.28C216.889 199.28 217.816 199.315 218.648 199.384C219.497 199.436 220.312 199.505 221.092 199.592C222.184 199.696 223.051 199.765 223.692 199.8C224.351 199.835 224.819 199.852 225.096 199.852C224.576 200.337 223.917 200.693 223.12 200.918C222.34 201.126 221.517 201.256 220.65 201.308C219.783 201.36 218.96 201.386 218.18 201.386C217.348 203.431 216.585 205.555 215.892 207.756C215.199 209.957 214.557 212.133 213.968 214.282C213.743 215.114 213.552 215.825 213.396 216.414C213.257 216.986 213.153 217.515 213.084 218C213.015 218.468 212.98 218.971 212.98 219.508C212.98 219.595 212.98 219.69 212.98 219.794C212.997 219.915 213.023 220.071 213.058 220.262ZM221.018 218.988C220.637 218.988 220.36 218.693 220.186 218.104C220.03 217.515 219.952 216.83 219.952 216.05C219.952 215.253 220.082 214.291 220.342 213.164C220.62 212.037 220.984 210.85 221.434 209.602C221.902 208.354 222.414 207.132 222.968 205.936C223.54 204.74 224.121 203.657 224.71 202.686C225.317 201.698 225.889 200.909 226.426 200.32C226.981 199.731 227.466 199.436 227.882 199.436C228.246 199.436 228.524 199.635 228.714 200.034C228.905 200.433 229 200.849 229 201.282C229 201.75 228.888 202.331 228.662 203.024C228.454 203.7 228.16 204.428 227.778 205.208C227.397 205.988 226.946 206.759 226.426 207.522C225.924 208.267 225.369 208.952 224.762 209.576C224.173 210.2 223.558 210.703 222.916 211.084C222.587 211.985 222.353 212.791 222.214 213.502C222.093 214.195 222.032 214.863 222.032 215.504C222.032 215.591 222.032 215.686 222.032 215.79C222.05 215.877 222.058 215.963 222.058 216.05C222.128 215.946 222.24 215.677 222.396 215.244C222.552 214.811 222.76 214.308 223.02 213.736C223.298 213.147 223.636 212.575 224.034 212.02C224.433 211.448 224.901 210.98 225.438 210.616C225.976 210.235 226.591 210.044 227.284 210.044C227.874 210.044 228.333 210.183 228.662 210.46C228.992 210.72 229.226 211.049 229.364 211.448C229.503 211.829 229.572 212.219 229.572 212.618C229.572 213.173 229.477 213.693 229.286 214.178C229.113 214.663 228.931 215.123 228.74 215.556C228.567 215.972 228.48 216.371 228.48 216.752C228.48 217.064 228.55 217.281 228.688 217.402C228.827 217.523 228.992 217.584 229.182 217.584C229.564 217.584 230.006 217.393 230.508 217.012C231.028 216.631 231.54 216.128 232.042 215.504C232.562 214.863 233.004 214.161 233.368 213.398L233.784 213.84C233.386 214.707 232.918 215.504 232.38 216.232C231.843 216.96 231.254 217.541 230.612 217.974C229.971 218.407 229.278 218.624 228.532 218.624C227.874 218.624 227.371 218.451 227.024 218.104C226.678 217.757 226.504 217.324 226.504 216.804C226.504 216.44 226.565 216.041 226.686 215.608C226.825 215.157 226.955 214.707 227.076 214.256C227.198 213.805 227.258 213.398 227.258 213.034C227.258 212.618 227.163 212.332 226.972 212.176C226.799 212.02 226.582 211.942 226.322 211.942C225.889 211.942 225.499 212.115 225.152 212.462C224.806 212.791 224.494 213.225 224.216 213.762C223.939 214.299 223.679 214.871 223.436 215.478C223.194 216.067 222.951 216.631 222.708 217.168C222.466 217.705 222.206 218.139 221.928 218.468C221.668 218.815 221.365 218.988 221.018 218.988ZM223.462 209.42C224.017 208.917 224.546 208.311 225.048 207.6C225.568 206.872 226.028 206.135 226.426 205.39C226.825 204.645 227.137 203.969 227.362 203.362C227.605 202.738 227.735 202.27 227.752 201.958V201.88C227.648 201.88 227.423 202.097 227.076 202.53C226.747 202.946 226.357 203.518 225.906 204.246C225.473 204.957 225.031 205.763 224.58 206.664C224.147 207.565 223.774 208.484 223.462 209.42ZM237.818 207.054C237.489 207.054 237.185 206.976 236.908 206.82C236.648 206.647 236.518 206.387 236.518 206.04C236.518 205.624 236.743 205.269 237.194 204.974C237.645 204.679 238.113 204.532 238.598 204.532C238.91 204.532 239.17 204.601 239.378 204.74C239.603 204.879 239.716 205.13 239.716 205.494C239.716 205.858 239.517 206.213 239.118 206.56C238.719 206.889 238.286 207.054 237.818 207.054ZM234.75 218.78C233.987 218.78 233.415 218.555 233.034 218.104C232.653 217.653 232.462 217.107 232.462 216.466C232.462 216.067 232.531 215.565 232.67 214.958C232.809 214.351 232.999 213.719 233.242 213.06C233.502 212.384 233.797 211.751 234.126 211.162C234.455 210.573 234.811 210.096 235.192 209.732C235.573 209.351 235.955 209.16 236.336 209.16C236.544 209.16 236.726 209.229 236.882 209.368C237.038 209.489 237.116 209.671 237.116 209.914C237.116 210.139 236.977 210.477 236.7 210.928C236.44 211.379 236.128 211.899 235.764 212.488C235.417 213.077 235.105 213.693 234.828 214.334C234.568 214.958 234.438 215.556 234.438 216.128C234.438 216.683 234.533 217.055 234.724 217.246C234.932 217.419 235.227 217.506 235.608 217.506C236.197 217.506 236.839 217.211 237.532 216.622C238.225 216.033 238.945 215.001 239.69 213.528L240.08 213.944C239.473 215.469 238.702 216.657 237.766 217.506C236.83 218.355 235.825 218.78 234.75 218.78ZM247.78 218.52C247.104 218.52 246.584 218.347 246.22 218C245.873 217.671 245.7 217.246 245.7 216.726C245.7 216.379 245.76 216.015 245.882 215.634C246.003 215.235 246.124 214.837 246.246 214.438C246.367 214.039 246.428 213.658 246.428 213.294C246.428 212.913 246.332 212.653 246.142 212.514C245.968 212.358 245.76 212.28 245.518 212.28C244.998 212.28 244.46 212.497 243.906 212.93C243.368 213.346 242.84 213.875 242.32 214.516C241.817 215.157 241.34 215.825 240.89 216.518C240.439 217.211 240.049 217.835 239.72 218.39C239.39 218.39 239.078 218.329 238.784 218.208C238.489 218.104 238.238 217.913 238.03 217.636C238.047 217.549 238.151 217.289 238.342 216.856C238.515 216.405 238.714 215.877 238.94 215.27C239.165 214.646 239.364 213.996 239.538 213.32C239.711 212.644 239.798 212.029 239.798 211.474C239.919 211.335 240.101 211.197 240.344 211.058C240.604 210.919 240.872 210.85 241.15 210.85C241.756 210.85 242.06 211.11 242.06 211.63C242.06 212.098 241.912 212.869 241.618 213.944C242.068 213.337 242.562 212.765 243.1 212.228C243.637 211.691 244.192 211.257 244.764 210.928C245.353 210.581 245.942 210.408 246.532 210.408C247.277 210.408 247.823 210.659 248.17 211.162C248.534 211.665 248.716 212.219 248.716 212.826C248.716 213.346 248.629 213.831 248.456 214.282C248.282 214.733 248.109 215.157 247.936 215.556C247.78 215.955 247.702 216.345 247.702 216.726C247.702 217.003 247.762 217.203 247.884 217.324C248.022 217.428 248.17 217.48 248.326 217.48C248.742 217.48 249.175 217.281 249.626 216.882C250.076 216.483 250.501 215.981 250.9 215.374C251.316 214.75 251.68 214.126 251.992 213.502L252.434 213.866C252.07 214.715 251.654 215.495 251.186 216.206C250.735 216.899 250.224 217.463 249.652 217.896C249.097 218.312 248.473 218.52 247.78 218.52ZM259.549 218.988C259.011 218.988 258.543 218.815 258.145 218.468C257.746 218.121 257.425 217.688 257.183 217.168C256.94 216.648 256.758 216.119 256.637 215.582C256.515 215.027 256.455 214.551 256.455 214.152C256.697 214.1 257.001 214.022 257.365 213.918C257.729 213.814 258.101 213.675 258.483 213.502C258.864 213.311 259.176 213.086 259.419 212.826C259.679 212.549 259.809 212.219 259.809 211.838C259.809 211.526 259.705 211.275 259.497 211.084C259.306 210.893 259.029 210.798 258.665 210.798C258.179 210.798 257.72 210.963 257.287 211.292C256.853 211.604 256.446 212.02 256.065 212.54C255.701 213.06 255.363 213.623 255.051 214.23C254.756 214.837 254.487 215.426 254.245 215.998C254.019 216.57 253.829 217.064 253.673 217.48C253.482 218 253.3 218.347 253.127 218.52C252.953 218.711 252.702 218.806 252.373 218.806C252.251 218.806 252.104 218.771 251.931 218.702C251.775 218.633 251.636 218.459 251.515 218.182C251.411 217.905 251.359 217.463 251.359 216.856C251.359 215.799 251.506 214.637 251.801 213.372C252.095 212.107 252.485 210.824 252.971 209.524C253.473 208.207 254.019 206.95 254.609 205.754C255.198 204.558 255.796 203.483 256.403 202.53C257.009 201.577 257.573 200.823 258.093 200.268C258.63 199.713 259.072 199.436 259.419 199.436C259.713 199.436 259.956 199.618 260.147 199.982C260.355 200.329 260.459 200.779 260.459 201.334C260.459 201.923 260.329 202.582 260.069 203.31C259.809 204.021 259.436 204.749 258.951 205.494C258.483 206.222 257.919 206.915 257.261 207.574C256.602 208.233 255.874 208.796 255.077 209.264C254.591 210.391 254.219 211.509 253.959 212.618C253.699 213.71 253.534 214.681 253.465 215.53C253.777 214.819 254.132 214.091 254.531 213.346C254.929 212.601 255.371 211.907 255.857 211.266C256.342 210.607 256.862 210.079 257.417 209.68C257.989 209.281 258.595 209.082 259.237 209.082C259.93 209.082 260.537 209.325 261.057 209.81C261.577 210.295 261.837 210.902 261.837 211.63C261.837 212.15 261.698 212.601 261.421 212.982C261.143 213.363 260.797 213.684 260.381 213.944C259.982 214.187 259.575 214.369 259.159 214.49C258.743 214.611 258.387 214.681 258.093 214.698C258.162 215.01 258.266 215.409 258.405 215.894C258.561 216.379 258.777 216.813 259.055 217.194C259.332 217.558 259.696 217.74 260.147 217.74C260.58 217.74 261.022 217.541 261.473 217.142C261.941 216.743 262.391 216.215 262.825 215.556C263.275 214.897 263.674 214.169 264.021 213.372L264.385 213.814C264.09 214.681 263.683 215.513 263.163 216.31C262.66 217.107 262.097 217.749 261.473 218.234C260.849 218.737 260.207 218.988 259.549 218.988ZM255.831 207.496C256.299 207.08 256.793 206.569 257.313 205.962C257.833 205.338 258.275 204.679 258.639 203.986C259.02 203.275 259.219 202.599 259.237 201.958V201.88C259.063 201.949 258.786 202.253 258.405 202.79C258.041 203.31 257.633 203.977 257.183 204.792C256.732 205.607 256.281 206.508 255.831 207.496ZM271.864 218.78C271.535 218.78 271.197 218.693 270.85 218.52C270.521 218.364 270.244 218.113 270.018 217.766C269.776 217.419 269.654 216.977 269.654 216.44C269.654 215.868 269.793 215.227 270.07 214.516C270.348 213.805 270.72 213.095 271.188 212.384C271.674 211.673 272.228 211.023 272.852 210.434C273.494 209.845 274.17 209.368 274.88 209.004C275.591 208.64 276.31 208.458 277.038 208.458C277.437 208.458 277.749 208.527 277.974 208.666C278.2 208.787 278.312 208.995 278.312 209.29C278.312 209.377 278.295 209.481 278.26 209.602C278.226 209.706 278.139 209.801 278 209.888C277.931 209.784 277.81 209.715 277.636 209.68C277.463 209.628 277.281 209.602 277.09 209.602C276.518 209.602 275.972 209.767 275.452 210.096C274.932 210.408 274.456 210.815 274.022 211.318C273.589 211.821 273.208 212.367 272.878 212.956C272.566 213.545 272.324 214.117 272.15 214.672C271.977 215.209 271.89 215.677 271.89 216.076C271.89 216.804 272.168 217.168 272.722 217.168C273.19 217.168 273.745 216.899 274.386 216.362C275.045 215.807 275.712 215.019 276.388 213.996C277.082 212.956 277.706 211.717 278.26 210.278C278.642 209.29 279.04 208.285 279.456 207.262C279.872 206.222 280.288 205.225 280.704 204.272C281.12 203.319 281.528 202.469 281.926 201.724C282.342 200.979 282.732 200.389 283.096 199.956C283.478 199.505 283.824 199.28 284.136 199.28C284.327 199.28 284.492 199.358 284.63 199.514C284.786 199.653 284.864 199.835 284.864 200.06C284.864 200.355 284.717 200.831 284.422 201.49C284.145 202.131 283.781 202.903 283.33 203.804C282.897 204.705 282.42 205.685 281.9 206.742C281.398 207.782 280.921 208.857 280.47 209.966C280.037 211.058 279.673 212.141 279.378 213.216C279.101 214.273 278.962 215.27 278.962 216.206C278.962 216.622 278.997 216.908 279.066 217.064C279.153 217.203 279.292 217.272 279.482 217.272C280.037 217.272 280.696 216.943 281.458 216.284C282.238 215.608 282.923 214.655 283.512 213.424L284.006 213.84C283.625 214.793 283.14 215.634 282.55 216.362C281.961 217.09 281.328 217.653 280.652 218.052C279.976 218.468 279.309 218.676 278.65 218.676C277.94 218.676 277.446 218.451 277.168 218C276.891 217.549 276.752 217.021 276.752 216.414C276.752 216.137 276.77 215.859 276.804 215.582C276.856 215.287 276.908 215.001 276.96 214.724C276.146 215.903 275.279 216.873 274.36 217.636C273.459 218.399 272.627 218.78 271.864 218.78ZM287.99 207.054C287.66 207.054 287.357 206.976 287.08 206.82C286.82 206.647 286.69 206.387 286.69 206.04C286.69 205.624 286.915 205.269 287.366 204.974C287.816 204.679 288.284 204.532 288.77 204.532C289.082 204.532 289.342 204.601 289.55 204.74C289.775 204.879 289.888 205.13 289.888 205.494C289.888 205.858 289.688 206.213 289.29 206.56C288.891 206.889 288.458 207.054 287.99 207.054ZM284.922 218.78C284.159 218.78 283.587 218.555 283.206 218.104C282.824 217.653 282.634 217.107 282.634 216.466C282.634 216.067 282.703 215.565 282.842 214.958C282.98 214.351 283.171 213.719 283.414 213.06C283.674 212.384 283.968 211.751 284.298 211.162C284.627 210.573 284.982 210.096 285.364 209.732C285.745 209.351 286.126 209.16 286.508 209.16C286.716 209.16 286.898 209.229 287.054 209.368C287.21 209.489 287.288 209.671 287.288 209.914C287.288 210.139 287.149 210.477 286.872 210.928C286.612 211.379 286.3 211.899 285.936 212.488C285.589 213.077 285.277 213.693 285 214.334C284.74 214.958 284.61 215.556 284.61 216.128C284.61 216.683 284.705 217.055 284.896 217.246C285.104 217.419 285.398 217.506 285.78 217.506C286.369 217.506 287.01 217.211 287.704 216.622C288.397 216.033 289.116 215.001 289.862 213.528L290.252 213.944C289.645 215.469 288.874 216.657 287.938 217.506C287.002 218.355 285.996 218.78 284.922 218.78ZM289.163 225.28C288.973 225.28 288.747 225.219 288.487 225.098C288.21 224.977 287.976 224.734 287.785 224.37C287.577 224.023 287.473 223.495 287.473 222.784C287.473 222.039 287.603 221.059 287.863 219.846C288.106 218.65 288.453 217.324 288.903 215.868C289.337 214.395 289.848 212.887 290.437 211.344C291.044 209.801 291.685 208.319 292.361 206.898C293.055 205.459 293.765 204.168 294.493 203.024C295.239 201.88 295.975 200.97 296.703 200.294C297.431 199.618 298.133 199.28 298.809 199.28C299.26 199.28 299.555 199.419 299.693 199.696C299.832 199.956 299.901 200.259 299.901 200.606C299.901 201.351 299.693 202.166 299.277 203.05C298.879 203.934 298.341 204.827 297.665 205.728C296.989 206.612 296.227 207.453 295.377 208.25C294.545 209.047 293.687 209.732 292.803 210.304C292.734 210.477 292.665 210.651 292.595 210.824C292.526 210.997 292.457 211.171 292.387 211.344C292.578 211.413 292.725 211.535 292.829 211.708C292.951 211.881 293.02 212.063 293.037 212.254C293.176 212.999 293.315 213.667 293.453 214.256C293.592 214.828 293.8 215.279 294.077 215.608C294.372 215.937 294.788 216.102 295.325 216.102C295.932 216.102 296.469 215.877 296.937 215.426C297.405 214.975 297.882 214.343 298.367 213.528L298.939 213.944C298.385 215.053 297.761 215.868 297.067 216.388C296.374 216.891 295.75 217.142 295.195 217.142C294.606 217.142 293.991 216.908 293.349 216.44C293.332 217.515 293.202 218.572 292.959 219.612C292.734 220.669 292.422 221.623 292.023 222.472C291.625 223.321 291.174 223.997 290.671 224.5C290.186 225.02 289.683 225.28 289.163 225.28ZM293.557 208.484C294.615 207.496 295.516 206.534 296.261 205.598C297.007 204.662 297.57 203.839 297.951 203.128C298.35 202.4 298.549 201.889 298.549 201.594C298.549 201.455 298.48 201.386 298.341 201.386C297.925 201.386 297.449 201.707 296.911 202.348C296.374 202.972 295.819 203.821 295.247 204.896C294.675 205.971 294.112 207.167 293.557 208.484ZM289.891 223.668C290.134 223.668 290.394 223.417 290.671 222.914C290.949 222.411 291.209 221.779 291.451 221.016C291.694 220.253 291.893 219.456 292.049 218.624C292.205 217.809 292.283 217.081 292.283 216.44C292.283 215.937 292.223 215.495 292.101 215.114C291.997 214.715 291.807 214.273 291.529 213.788C290.923 215.591 290.429 217.272 290.047 218.832C289.666 220.392 289.475 221.631 289.475 222.55C289.475 223.295 289.614 223.668 289.891 223.668ZM297.745 225.28C297.555 225.28 297.329 225.219 297.069 225.098C296.792 224.977 296.558 224.734 296.367 224.37C296.159 224.023 296.055 223.495 296.055 222.784C296.055 222.039 296.185 221.059 296.445 219.846C296.688 218.65 297.035 217.324 297.485 215.868C297.919 214.395 298.43 212.887 299.019 211.344C299.626 209.801 300.267 208.319 300.943 206.898C301.637 205.459 302.347 204.168 303.075 203.024C303.821 201.88 304.557 200.97 305.285 200.294C306.013 199.618 306.715 199.28 307.391 199.28C307.842 199.28 308.137 199.419 308.275 199.696C308.414 199.956 308.483 200.259 308.483 200.606C308.483 201.351 308.275 202.166 307.859 203.05C307.461 203.934 306.923 204.827 306.247 205.728C305.571 206.612 304.809 207.453 303.959 208.25C303.127 209.047 302.269 209.732 301.385 210.304C301.316 210.477 301.247 210.651 301.177 210.824C301.108 210.997 301.039 211.171 300.969 211.344C301.16 211.413 301.307 211.535 301.411 211.708C301.533 211.881 301.602 212.063 301.619 212.254C301.758 212.999 301.897 213.667 302.035 214.256C302.174 214.828 302.382 215.279 302.659 215.608C302.954 215.937 303.37 216.102 303.907 216.102C304.514 216.102 305.051 215.877 305.519 215.426C305.987 214.975 306.464 214.343 306.949 213.528L307.521 213.944C306.967 215.053 306.343 215.868 305.649 216.388C304.956 216.891 304.332 217.142 303.777 217.142C303.188 217.142 302.573 216.908 301.931 216.44C301.914 217.515 301.784 218.572 301.541 219.612C301.316 220.669 301.004 221.623 300.605 222.472C300.207 223.321 299.756 223.997 299.253 224.5C298.768 225.02 298.265 225.28 297.745 225.28ZM302.139 208.484C303.197 207.496 304.098 206.534 304.843 205.598C305.589 204.662 306.152 203.839 306.533 203.128C306.932 202.4 307.131 201.889 307.131 201.594C307.131 201.455 307.062 201.386 306.923 201.386C306.507 201.386 306.031 201.707 305.493 202.348C304.956 202.972 304.401 203.821 303.829 204.896C303.257 205.971 302.694 207.167 302.139 208.484ZM298.473 223.668C298.716 223.668 298.976 223.417 299.253 222.914C299.531 222.411 299.791 221.779 300.033 221.016C300.276 220.253 300.475 219.456 300.631 218.624C300.787 217.809 300.865 217.081 300.865 216.44C300.865 215.937 300.805 215.495 300.683 215.114C300.579 214.715 300.389 214.273 300.111 213.788C299.505 215.591 299.011 217.272 298.629 218.832C298.248 220.392 298.057 221.631 298.057 222.55C298.057 223.295 298.196 223.668 298.473 223.668ZM309.37 219.144C308.26 219.144 307.402 218.841 306.796 218.234C306.206 217.645 305.912 216.899 305.912 215.998C305.912 215.235 306.102 214.429 306.484 213.58C306.882 212.713 307.411 211.907 308.07 211.162C308.728 210.399 309.456 209.784 310.254 209.316C311.051 208.848 311.848 208.614 312.646 208.614C313.096 208.614 313.521 208.735 313.92 208.978C314.336 209.203 314.544 209.663 314.544 210.356C314.544 211.015 314.353 211.63 313.972 212.202C313.59 212.774 313.079 213.285 312.438 213.736C311.796 214.187 311.086 214.559 310.306 214.854C309.543 215.131 308.772 215.313 307.992 215.4C307.974 215.469 307.957 215.547 307.94 215.634C307.94 215.703 307.94 215.825 307.94 215.998C307.94 216.085 307.948 216.241 307.966 216.466C308 216.674 308.078 216.899 308.2 217.142C308.321 217.385 308.52 217.593 308.798 217.766C309.075 217.939 309.456 218.026 309.942 218.026C310.67 218.026 311.398 217.827 312.126 217.428C312.871 217.012 313.564 216.466 314.206 215.79C314.864 215.114 315.41 214.36 315.844 213.528L316.364 213.944C315.896 214.984 315.289 215.894 314.544 216.674C313.816 217.454 313.001 218.061 312.1 218.494C311.216 218.927 310.306 219.144 309.37 219.144ZM308.278 214.438C308.728 214.386 309.231 214.23 309.786 213.97C310.34 213.71 310.869 213.381 311.372 212.982C311.892 212.583 312.316 212.15 312.646 211.682C312.975 211.197 313.14 210.711 313.14 210.226C313.14 210.035 313.105 209.905 313.036 209.836C312.966 209.767 312.854 209.732 312.698 209.732C312.299 209.732 311.883 209.879 311.45 210.174C311.016 210.451 310.592 210.824 310.176 211.292C309.76 211.743 309.387 212.245 309.058 212.8C308.728 213.355 308.468 213.901 308.278 214.438ZM320.025 218.676C319.384 218.676 318.864 218.503 318.465 218.156C318.066 217.827 317.867 217.376 317.867 216.804C317.867 216.319 317.988 215.799 318.231 215.244C318.474 214.689 318.716 214.143 318.959 213.606C319.219 213.069 319.349 212.592 319.349 212.176C319.349 211.777 319.219 211.448 318.959 211.188C318.699 210.911 318.396 210.685 318.049 210.512C317.668 211.465 317.234 212.393 316.749 213.294C316.281 214.178 315.9 214.871 315.605 215.374L315.215 214.62C315.458 214.169 315.778 213.528 316.177 212.696C316.576 211.864 316.957 210.937 317.321 209.914C317.148 209.741 317.061 209.507 317.061 209.212C317.061 208.761 317.2 208.337 317.477 207.938C317.754 207.539 318.023 207.34 318.283 207.34C318.491 207.34 318.638 207.461 318.725 207.704C318.829 207.929 318.881 208.085 318.881 208.172C318.881 208.259 318.838 208.415 318.751 208.64C318.682 208.865 318.63 209.03 318.595 209.134C318.612 209.325 318.76 209.515 319.037 209.706C319.332 209.879 319.661 210.087 320.025 210.33C320.389 210.573 320.71 210.876 320.987 211.24C321.264 211.604 321.403 212.063 321.403 212.618C321.403 213.121 321.29 213.632 321.065 214.152C320.84 214.672 320.614 215.157 320.389 215.608C320.164 216.059 320.051 216.449 320.051 216.778C320.051 217.021 320.112 217.185 320.233 217.272C320.372 217.341 320.528 217.376 320.701 217.376C321.117 217.376 321.55 217.255 322.001 217.012C322.452 216.752 322.894 216.423 323.327 216.024C323.76 215.625 324.142 215.209 324.471 214.776C324.8 214.325 325.052 213.918 325.225 213.554L325.849 214.022C325.52 214.767 325.043 215.504 324.419 216.232C323.795 216.943 323.102 217.532 322.339 218C321.576 218.451 320.805 218.676 320.025 218.676ZM327.676 219.144C326.567 219.144 325.709 218.841 325.102 218.234C324.513 217.645 324.218 216.899 324.218 215.998C324.218 215.235 324.409 214.429 324.79 213.58C325.189 212.713 325.717 211.907 326.376 211.162C327.035 210.399 327.763 209.784 328.56 209.316C329.357 208.848 330.155 208.614 330.952 208.614C331.403 208.614 331.827 208.735 332.226 208.978C332.642 209.203 332.85 209.663 332.85 210.356C332.85 211.015 332.659 211.63 332.278 212.202C331.897 212.774 331.385 213.285 330.744 213.736C330.103 214.187 329.392 214.559 328.612 214.854C327.849 215.131 327.078 215.313 326.298 215.4C326.281 215.469 326.263 215.547 326.246 215.634C326.246 215.703 326.246 215.825 326.246 215.998C326.246 216.085 326.255 216.241 326.272 216.466C326.307 216.674 326.385 216.899 326.506 217.142C326.627 217.385 326.827 217.593 327.104 217.766C327.381 217.939 327.763 218.026 328.248 218.026C328.976 218.026 329.704 217.827 330.432 217.428C331.177 217.012 331.871 216.466 332.512 215.79C333.171 215.114 333.717 214.36 334.15 213.528L334.67 213.944C334.202 214.984 333.595 215.894 332.85 216.674C332.122 217.454 331.307 218.061 330.406 218.494C329.522 218.927 328.612 219.144 327.676 219.144ZM326.584 214.438C327.035 214.386 327.537 214.23 328.092 213.97C328.647 213.71 329.175 213.381 329.678 212.982C330.198 212.583 330.623 212.15 330.952 211.682C331.281 211.197 331.446 210.711 331.446 210.226C331.446 210.035 331.411 209.905 331.342 209.836C331.273 209.767 331.16 209.732 331.004 209.732C330.605 209.732 330.189 209.879 329.756 210.174C329.323 210.451 328.898 210.824 328.482 211.292C328.066 211.743 327.693 212.245 327.364 212.8C327.035 213.355 326.775 213.901 326.584 214.438ZM342.283 218.52C341.607 218.52 341.087 218.347 340.723 218C340.377 217.671 340.203 217.246 340.203 216.726C340.203 216.379 340.264 216.015 340.385 215.634C340.507 215.235 340.628 214.837 340.749 214.438C340.871 214.039 340.931 213.658 340.931 213.294C340.931 212.913 340.836 212.653 340.645 212.514C340.472 212.358 340.264 212.28 340.021 212.28C339.501 212.28 338.964 212.497 338.409 212.93C337.872 213.346 337.343 213.875 336.823 214.516C336.321 215.157 335.844 215.825 335.393 216.518C334.943 217.211 334.553 217.835 334.223 218.39C333.894 218.39 333.582 218.329 333.287 218.208C332.993 218.104 332.741 217.913 332.533 217.636C332.551 217.549 332.655 217.289 332.845 216.856C333.019 216.405 333.218 215.877 333.443 215.27C333.669 214.646 333.868 213.996 334.041 213.32C334.215 212.644 334.301 212.029 334.301 211.474C334.423 211.335 334.605 211.197 334.847 211.058C335.107 210.919 335.376 210.85 335.653 210.85C336.26 210.85 336.563 211.11 336.563 211.63C336.563 212.098 336.416 212.869 336.121 213.944C336.572 213.337 337.066 212.765 337.603 212.228C338.141 211.691 338.695 211.257 339.267 210.928C339.857 210.581 340.446 210.408 341.035 210.408C341.781 210.408 342.327 210.659 342.673 211.162C343.037 211.665 343.219 212.219 343.219 212.826C343.219 213.346 343.133 213.831 342.959 214.282C342.786 214.733 342.613 215.157 342.439 215.556C342.283 215.955 342.205 216.345 342.205 216.726C342.205 217.003 342.266 217.203 342.387 217.324C342.526 217.428 342.673 217.48 342.829 217.48C343.245 217.48 343.679 217.281 344.129 216.882C344.58 216.483 345.005 215.981 345.403 215.374C345.819 214.75 346.183 214.126 346.495 213.502L346.937 213.866C346.573 214.715 346.157 215.495 345.689 216.206C345.239 216.899 344.727 217.463 344.155 217.896C343.601 218.312 342.977 218.52 342.283 218.52ZM348.177 219.196C347.414 219.196 346.799 218.971 346.331 218.52C345.863 218.069 345.629 217.385 345.629 216.466C345.629 215.755 345.759 214.871 346.019 213.814C346.296 212.757 346.643 211.665 347.059 210.538C346.937 210.503 346.79 210.477 346.617 210.46C346.461 210.425 346.305 210.373 346.149 210.304V209.498C346.426 209.533 346.651 209.559 346.825 209.576C347.015 209.593 347.206 209.611 347.397 209.628C347.761 208.709 348.151 207.825 348.567 206.976C349 206.109 349.425 205.338 349.841 204.662C350.274 203.986 350.681 203.457 351.063 203.076C351.444 202.677 351.782 202.478 352.077 202.478C352.25 202.478 352.415 202.547 352.571 202.686C352.727 202.807 352.805 202.989 352.805 203.232C352.805 203.579 352.623 204.073 352.259 204.714C351.912 205.355 351.479 206.109 350.959 206.976C350.439 207.825 349.936 208.735 349.451 209.706H350.257C351.019 209.706 351.704 209.697 352.311 209.68C352.935 209.645 353.567 209.593 354.209 209.524V210.382C353.255 210.469 352.38 210.538 351.583 210.59C350.785 210.642 350.023 210.677 349.295 210.694H348.983C348.619 211.543 348.298 212.419 348.021 213.32C347.761 214.204 347.631 215.071 347.631 215.92C347.631 216.631 347.743 217.133 347.969 217.428C348.194 217.723 348.549 217.87 349.035 217.87C349.901 217.87 350.785 217.48 351.687 216.7C352.605 215.903 353.403 214.828 354.079 213.476L354.443 213.736C353.992 214.759 353.429 215.686 352.753 216.518C352.094 217.35 351.375 218 350.595 218.468C349.815 218.953 349.009 219.196 348.177 219.196ZM361.485 214.308C361.606 213.927 361.849 213.623 362.213 213.398C362.577 213.173 362.984 213.008 363.435 212.904C363.885 212.8 364.31 212.739 364.709 212.722C365.107 212.687 365.411 212.67 365.619 212.67C365.844 212.67 366.217 212.679 366.737 212.696C367.257 212.713 367.82 212.731 368.427 212.748C369.033 212.765 369.597 212.783 370.117 212.8C370.637 212.817 371.009 212.835 371.235 212.852C371.061 213.251 370.663 213.589 370.039 213.866C369.432 214.126 368.773 214.256 368.063 214.256C367.699 214.256 367.231 214.23 366.659 214.178C366.087 214.126 365.471 214.1 364.813 214.1C364.379 214.1 363.929 214.117 363.461 214.152C362.993 214.169 362.577 214.195 362.213 214.23C361.866 214.265 361.623 214.291 361.485 214.308ZM386.044 220.262C385.091 220.262 384.432 220.071 384.068 219.69C383.704 219.326 383.514 218.849 383.496 218.26C383.496 217.757 383.592 217.159 383.782 216.466C383.99 215.755 384.198 215.079 384.406 214.438C384.961 212.791 385.542 211.188 386.148 209.628C386.772 208.068 387.379 206.595 387.968 205.208C388.575 203.804 389.112 202.53 389.58 201.386C388.402 201.403 387.379 201.438 386.512 201.49C385.663 201.542 384.883 201.611 384.172 201.698C383.462 201.767 382.725 201.871 381.962 202.01C382.049 201.282 382.387 200.727 382.976 200.346C383.583 199.947 384.389 199.67 385.394 199.514C386.4 199.358 387.552 199.28 388.852 199.28C389.875 199.28 390.802 199.315 391.634 199.384C392.484 199.436 393.298 199.505 394.078 199.592C395.17 199.696 396.037 199.765 396.678 199.8C397.337 199.835 397.805 199.852 398.082 199.852C397.562 200.337 396.904 200.693 396.106 200.918C395.326 201.126 394.503 201.256 393.636 201.308C392.77 201.36 391.946 201.386 391.166 201.386C390.334 203.431 389.572 205.555 388.878 207.756C388.185 209.957 387.544 212.133 386.954 214.282C386.729 215.114 386.538 215.825 386.382 216.414C386.244 216.986 386.14 217.515 386.07 218C386.001 218.468 385.966 218.971 385.966 219.508C385.966 219.595 385.966 219.69 385.966 219.794C385.984 219.915 386.01 220.071 386.044 220.262ZM394.005 218.988C393.623 218.988 393.346 218.693 393.173 218.104C393.017 217.515 392.939 216.83 392.939 216.05C392.939 215.253 393.069 214.291 393.329 213.164C393.606 212.037 393.97 210.85 394.421 209.602C394.889 208.354 395.4 207.132 395.955 205.936C396.527 204.74 397.107 203.657 397.697 202.686C398.303 201.698 398.875 200.909 399.413 200.32C399.967 199.731 400.453 199.436 400.869 199.436C401.233 199.436 401.51 199.635 401.701 200.034C401.891 200.433 401.987 200.849 401.987 201.282C401.987 201.75 401.874 202.331 401.649 203.024C401.441 203.7 401.146 204.428 400.765 205.208C400.383 205.988 399.933 206.759 399.413 207.522C398.91 208.267 398.355 208.952 397.749 209.576C397.159 210.2 396.544 210.703 395.903 211.084C395.573 211.985 395.339 212.791 395.201 213.502C395.079 214.195 395.019 214.863 395.019 215.504C395.019 215.591 395.019 215.686 395.019 215.79C395.036 215.877 395.045 215.963 395.045 216.05C395.114 215.946 395.227 215.677 395.383 215.244C395.539 214.811 395.747 214.308 396.007 213.736C396.284 213.147 396.622 212.575 397.021 212.02C397.419 211.448 397.887 210.98 398.425 210.616C398.962 210.235 399.577 210.044 400.271 210.044C400.86 210.044 401.319 210.183 401.649 210.46C401.978 210.72 402.212 211.049 402.351 211.448C402.489 211.829 402.559 212.219 402.559 212.618C402.559 213.173 402.463 213.693 402.273 214.178C402.099 214.663 401.917 215.123 401.727 215.556C401.553 215.972 401.467 216.371 401.467 216.752C401.467 217.064 401.536 217.281 401.675 217.402C401.813 217.523 401.978 217.584 402.169 217.584C402.55 217.584 402.992 217.393 403.495 217.012C404.015 216.631 404.526 216.128 405.029 215.504C405.549 214.863 405.991 214.161 406.355 213.398L406.771 213.84C406.372 214.707 405.904 215.504 405.367 216.232C404.829 216.96 404.24 217.541 403.599 217.974C402.957 218.407 402.264 218.624 401.519 218.624C400.86 218.624 400.357 218.451 400.011 218.104C399.664 217.757 399.491 217.324 399.491 216.804C399.491 216.44 399.551 216.041 399.673 215.608C399.811 215.157 399.941 214.707 400.063 214.256C400.184 213.805 400.245 213.398 400.245 213.034C400.245 212.618 400.149 212.332 399.959 212.176C399.785 212.02 399.569 211.942 399.309 211.942C398.875 211.942 398.485 212.115 398.139 212.462C397.792 212.791 397.48 213.225 397.203 213.762C396.925 214.299 396.665 214.871 396.423 215.478C396.18 216.067 395.937 216.631 395.695 217.168C395.452 217.705 395.192 218.139 394.915 218.468C394.655 218.815 394.351 218.988 394.005 218.988ZM396.449 209.42C397.003 208.917 397.532 208.311 398.035 207.6C398.555 206.872 399.014 206.135 399.413 205.39C399.811 204.645 400.123 203.969 400.349 203.362C400.591 202.738 400.721 202.27 400.739 201.958V201.88C400.635 201.88 400.409 202.097 400.063 202.53C399.733 202.946 399.343 203.518 398.893 204.246C398.459 204.957 398.017 205.763 397.567 206.664C397.133 207.565 396.761 208.484 396.449 209.42ZM410.804 207.054C410.475 207.054 410.172 206.976 409.894 206.82C409.634 206.647 409.504 206.387 409.504 206.04C409.504 205.624 409.73 205.269 410.18 204.974C410.631 204.679 411.099 204.532 411.584 204.532C411.896 204.532 412.156 204.601 412.364 204.74C412.59 204.879 412.702 205.13 412.702 205.494C412.702 205.858 412.503 206.213 412.104 206.56C411.706 206.889 411.272 207.054 410.804 207.054ZM407.736 218.78C406.974 218.78 406.402 218.555 406.02 218.104C405.639 217.653 405.448 217.107 405.448 216.466C405.448 216.067 405.518 215.565 405.656 214.958C405.795 214.351 405.986 213.719 406.228 213.06C406.488 212.384 406.783 211.751 407.112 211.162C407.442 210.573 407.797 210.096 408.178 209.732C408.56 209.351 408.941 209.16 409.322 209.16C409.53 209.16 409.712 209.229 409.868 209.368C410.024 209.489 410.102 209.671 410.102 209.914C410.102 210.139 409.964 210.477 409.686 210.928C409.426 211.379 409.114 211.899 408.75 212.488C408.404 213.077 408.092 213.693 407.814 214.334C407.554 214.958 407.424 215.556 407.424 216.128C407.424 216.683 407.52 217.055 407.71 217.246C407.918 217.419 408.213 217.506 408.594 217.506C409.184 217.506 409.825 217.211 410.518 216.622C411.212 216.033 411.931 215.001 412.676 213.528L413.066 213.944C412.46 215.469 411.688 216.657 410.752 217.506C409.816 218.355 408.811 218.78 407.736 218.78ZM420.766 218.52C420.09 218.52 419.57 218.347 419.206 218C418.859 217.671 418.686 217.246 418.686 216.726C418.686 216.379 418.747 216.015 418.868 215.634C418.989 215.235 419.111 214.837 419.232 214.438C419.353 214.039 419.414 213.658 419.414 213.294C419.414 212.913 419.319 212.653 419.128 212.514C418.955 212.358 418.747 212.28 418.504 212.28C417.984 212.28 417.447 212.497 416.892 212.93C416.355 213.346 415.826 213.875 415.306 214.516C414.803 215.157 414.327 215.825 413.876 216.518C413.425 217.211 413.035 217.835 412.706 218.39C412.377 218.39 412.065 218.329 411.77 218.208C411.475 218.104 411.224 217.913 411.016 217.636C411.033 217.549 411.137 217.289 411.328 216.856C411.501 216.405 411.701 215.877 411.926 215.27C412.151 214.646 412.351 213.996 412.524 213.32C412.697 212.644 412.784 212.029 412.784 211.474C412.905 211.335 413.087 211.197 413.33 211.058C413.59 210.919 413.859 210.85 414.136 210.85C414.743 210.85 415.046 211.11 415.046 211.63C415.046 212.098 414.899 212.869 414.604 213.944C415.055 213.337 415.549 212.765 416.086 212.228C416.623 211.691 417.178 211.257 417.75 210.928C418.339 210.581 418.929 210.408 419.518 210.408C420.263 210.408 420.809 210.659 421.156 211.162C421.52 211.665 421.702 212.219 421.702 212.826C421.702 213.346 421.615 213.831 421.442 214.282C421.269 214.733 421.095 215.157 420.922 215.556C420.766 215.955 420.688 216.345 420.688 216.726C420.688 217.003 420.749 217.203 420.87 217.324C421.009 217.428 421.156 217.48 421.312 217.48C421.728 217.48 422.161 217.281 422.612 216.882C423.063 216.483 423.487 215.981 423.886 215.374C424.302 214.75 424.666 214.126 424.978 213.502L425.42 213.866C425.056 214.715 424.64 215.495 424.172 216.206C423.721 216.899 423.21 217.463 422.638 217.896C422.083 218.312 421.459 218.52 420.766 218.52ZM432.535 218.988C431.998 218.988 431.53 218.815 431.131 218.468C430.732 218.121 430.412 217.688 430.169 217.168C429.926 216.648 429.744 216.119 429.623 215.582C429.502 215.027 429.441 214.551 429.441 214.152C429.684 214.1 429.987 214.022 430.351 213.918C430.715 213.814 431.088 213.675 431.469 213.502C431.85 213.311 432.162 213.086 432.405 212.826C432.665 212.549 432.795 212.219 432.795 211.838C432.795 211.526 432.691 211.275 432.483 211.084C432.292 210.893 432.015 210.798 431.651 210.798C431.166 210.798 430.706 210.963 430.273 211.292C429.84 211.604 429.432 212.02 429.051 212.54C428.687 213.06 428.349 213.623 428.037 214.23C427.742 214.837 427.474 215.426 427.231 215.998C427.006 216.57 426.815 217.064 426.659 217.48C426.468 218 426.286 218.347 426.113 218.52C425.94 218.711 425.688 218.806 425.359 218.806C425.238 218.806 425.09 218.771 424.917 218.702C424.761 218.633 424.622 218.459 424.501 218.182C424.397 217.905 424.345 217.463 424.345 216.856C424.345 215.799 424.492 214.637 424.787 213.372C425.082 212.107 425.472 210.824 425.957 209.524C426.46 208.207 427.006 206.95 427.595 205.754C428.184 204.558 428.782 203.483 429.389 202.53C429.996 201.577 430.559 200.823 431.079 200.268C431.616 199.713 432.058 199.436 432.405 199.436C432.7 199.436 432.942 199.618 433.133 199.982C433.341 200.329 433.445 200.779 433.445 201.334C433.445 201.923 433.315 202.582 433.055 203.31C432.795 204.021 432.422 204.749 431.937 205.494C431.469 206.222 430.906 206.915 430.247 207.574C429.588 208.233 428.86 208.796 428.063 209.264C427.578 210.391 427.205 211.509 426.945 212.618C426.685 213.71 426.52 214.681 426.451 215.53C426.763 214.819 427.118 214.091 427.517 213.346C427.916 212.601 428.358 211.907 428.843 211.266C429.328 210.607 429.848 210.079 430.403 209.68C430.975 209.281 431.582 209.082 432.223 209.082C432.916 209.082 433.523 209.325 434.043 209.81C434.563 210.295 434.823 210.902 434.823 211.63C434.823 212.15 434.684 212.601 434.407 212.982C434.13 213.363 433.783 213.684 433.367 213.944C432.968 214.187 432.561 214.369 432.145 214.49C431.729 214.611 431.374 214.681 431.079 214.698C431.148 215.01 431.252 215.409 431.391 215.894C431.547 216.379 431.764 216.813 432.041 217.194C432.318 217.558 432.682 217.74 433.133 217.74C433.566 217.74 434.008 217.541 434.459 217.142C434.927 216.743 435.378 216.215 435.811 215.556C436.262 214.897 436.66 214.169 437.007 213.372L437.371 213.814C437.076 214.681 436.669 215.513 436.149 216.31C435.646 217.107 435.083 217.749 434.459 218.234C433.835 218.737 433.194 218.988 432.535 218.988ZM428.817 207.496C429.285 207.08 429.779 206.569 430.299 205.962C430.819 205.338 431.261 204.679 431.625 203.986C432.006 203.275 432.206 202.599 432.223 201.958V201.88C432.05 201.949 431.772 202.253 431.391 202.79C431.027 203.31 430.62 203.977 430.169 204.792C429.718 205.607 429.268 206.508 428.817 207.496ZM445.995 219.456C445.093 219.456 444.348 219.17 443.759 218.598C443.187 218.043 442.901 217.185 442.901 216.024C442.901 215.175 443.065 214.343 443.395 213.528C443.724 212.713 444.166 211.985 444.721 211.344C445.275 210.685 445.891 210.165 446.567 209.784C447.26 209.403 447.962 209.212 448.673 209.212C449.401 209.212 449.921 209.394 450.233 209.758C450.562 210.122 450.727 210.547 450.727 211.032C450.727 211.517 450.605 211.994 450.363 212.462C450.137 212.913 449.825 213.138 449.427 213.138C449.097 213.138 448.829 212.973 448.621 212.644C448.794 212.523 448.976 212.297 449.167 211.968C449.357 211.639 449.453 211.214 449.453 210.694C449.453 210.399 449.288 210.252 448.959 210.252C448.525 210.252 448.066 210.451 447.581 210.85C447.113 211.231 446.671 211.734 446.255 212.358C445.856 212.965 445.527 213.615 445.267 214.308C445.024 214.984 444.903 215.608 444.903 216.18C444.903 216.665 445.024 217.116 445.267 217.532C445.527 217.931 446.021 218.13 446.749 218.13C447.407 218.13 448.092 217.939 448.803 217.558C449.513 217.177 450.181 216.648 450.805 215.972C451.429 215.279 451.931 214.455 452.313 213.502L452.833 213.97C452.417 215.027 451.836 215.972 451.091 216.804C450.363 217.619 449.548 218.26 448.647 218.728C447.763 219.213 446.879 219.456 445.995 219.456ZM453.431 218.832C452.651 218.832 452.114 218.572 451.819 218.052C451.542 217.549 451.403 216.995 451.403 216.388C451.403 215.833 451.49 215.27 451.663 214.698C451.836 214.109 452.07 213.563 452.365 213.06C452.677 212.557 453.015 212.159 453.379 211.864C453.76 211.552 454.142 211.396 454.523 211.396C454.644 211.396 454.783 211.422 454.939 211.474C455.112 211.509 455.234 211.569 455.303 211.656C455.026 212.003 454.74 212.453 454.445 213.008C454.168 213.545 453.934 214.109 453.743 214.698C453.57 215.287 453.483 215.825 453.483 216.31C453.483 216.657 453.544 216.943 453.665 217.168C453.804 217.393 454.038 217.506 454.367 217.506C454.696 217.506 455.086 217.324 455.537 216.96C456.005 216.579 456.447 216.145 456.863 215.66C456.308 215.157 455.91 214.611 455.667 214.022C455.424 213.415 455.303 212.687 455.303 211.838C455.303 211.474 455.39 211.058 455.563 210.59C455.754 210.122 456.048 209.715 456.447 209.368C456.863 209.021 457.418 208.848 458.111 208.848C458.856 208.848 459.376 209.056 459.671 209.472C459.983 209.888 460.139 210.382 460.139 210.954C460.139 211.595 459.966 212.315 459.619 213.112C459.29 213.909 458.891 214.663 458.423 215.374C458.631 215.478 458.874 215.53 459.151 215.53C459.411 215.53 459.723 215.469 460.087 215.348C460.451 215.227 460.806 215.027 461.153 214.75C461.5 214.455 461.777 214.065 461.985 213.58L462.453 213.918C462.072 214.802 461.56 215.452 460.919 215.868C460.295 216.267 459.68 216.466 459.073 216.466C458.848 216.466 458.622 216.449 458.397 216.414C458.172 216.362 457.964 216.301 457.773 216.232C457.184 216.925 456.508 217.532 455.745 218.052C454.982 218.572 454.211 218.832 453.431 218.832ZM457.539 214.828C457.955 214.221 458.31 213.571 458.605 212.878C458.9 212.185 459.047 211.543 459.047 210.954C459.047 210.191 458.804 209.81 458.319 209.81C457.99 209.81 457.652 210.044 457.305 210.512C456.958 210.98 456.785 211.569 456.785 212.28C456.785 212.644 456.846 213.086 456.967 213.606C457.106 214.126 457.296 214.533 457.539 214.828ZM461.363 225.28C461.172 225.28 460.947 225.219 460.687 225.098C460.409 224.977 460.175 224.734 459.985 224.37C459.777 224.023 459.673 223.495 459.673 222.784C459.673 222.039 459.803 221.059 460.063 219.846C460.305 218.65 460.652 217.324 461.103 215.868C461.536 214.395 462.047 212.887 462.637 211.344C463.243 209.801 463.885 208.319 464.561 206.898C465.254 205.459 465.965 204.168 466.693 203.024C467.438 201.88 468.175 200.97 468.903 200.294C469.631 199.618 470.333 199.28 471.009 199.28C471.459 199.28 471.754 199.419 471.893 199.696C472.031 199.956 472.101 200.259 472.101 200.606C472.101 201.351 471.893 202.166 471.477 203.05C471.078 203.934 470.541 204.827 469.865 205.728C469.189 206.612 468.426 207.453 467.577 208.25C466.745 209.047 465.887 209.732 465.003 210.304C464.933 210.477 464.864 210.651 464.795 210.824C464.725 210.997 464.656 211.171 464.587 211.344C464.777 211.413 464.925 211.535 465.029 211.708C465.15 211.881 465.219 212.063 465.237 212.254C465.375 212.999 465.514 213.667 465.653 214.256C465.791 214.828 465.999 215.279 466.277 215.608C466.571 215.937 466.987 216.102 467.525 216.102C468.131 216.102 468.669 215.877 469.137 215.426C469.605 214.975 470.081 214.343 470.567 213.528L471.139 213.944C470.584 215.053 469.96 215.868 469.267 216.388C468.573 216.891 467.949 217.142 467.395 217.142C466.805 217.142 466.19 216.908 465.549 216.44C465.531 217.515 465.401 218.572 465.159 219.612C464.933 220.669 464.621 221.623 464.223 222.472C463.824 223.321 463.373 223.997 462.871 224.5C462.385 225.02 461.883 225.28 461.363 225.28ZM465.757 208.484C466.814 207.496 467.715 206.534 468.461 205.598C469.206 204.662 469.769 203.839 470.151 203.128C470.549 202.4 470.749 201.889 470.749 201.594C470.749 201.455 470.679 201.386 470.541 201.386C470.125 201.386 469.648 201.707 469.111 202.348C468.573 202.972 468.019 203.821 467.447 204.896C466.875 205.971 466.311 207.167 465.757 208.484ZM462.091 223.668C462.333 223.668 462.593 223.417 462.871 222.914C463.148 222.411 463.408 221.779 463.651 221.016C463.893 220.253 464.093 219.456 464.249 218.624C464.405 217.809 464.483 217.081 464.483 216.44C464.483 215.937 464.422 215.495 464.301 215.114C464.197 214.715 464.006 214.273 463.729 213.788C463.122 215.591 462.628 217.272 462.247 218.832C461.865 220.392 461.675 221.631 461.675 222.55C461.675 223.295 461.813 223.668 462.091 223.668ZM469.945 225.28C469.754 225.28 469.529 225.219 469.269 225.098C468.991 224.977 468.757 224.734 468.567 224.37C468.359 224.023 468.255 223.495 468.255 222.784C468.255 222.039 468.385 221.059 468.645 219.846C468.887 218.65 469.234 217.324 469.685 215.868C470.118 214.395 470.629 212.887 471.219 211.344C471.825 209.801 472.467 208.319 473.143 206.898C473.836 205.459 474.547 204.168 475.275 203.024C476.02 201.88 476.757 200.97 477.485 200.294C478.213 199.618 478.915 199.28 479.591 199.28C480.041 199.28 480.336 199.419 480.475 199.696C480.613 199.956 480.683 200.259 480.683 200.606C480.683 201.351 480.475 202.166 480.059 203.05C479.66 203.934 479.123 204.827 478.447 205.728C477.771 206.612 477.008 207.453 476.159 208.25C475.327 209.047 474.469 209.732 473.585 210.304C473.515 210.477 473.446 210.651 473.377 210.824C473.307 210.997 473.238 211.171 473.169 211.344C473.359 211.413 473.507 211.535 473.611 211.708C473.732 211.881 473.801 212.063 473.819 212.254C473.957 212.999 474.096 213.667 474.235 214.256C474.373 214.828 474.581 215.279 474.859 215.608C475.153 215.937 475.569 216.102 476.107 216.102C476.713 216.102 477.251 215.877 477.719 215.426C478.187 214.975 478.663 214.343 479.149 213.528L479.721 213.944C479.166 215.053 478.542 215.868 477.849 216.388C477.155 216.891 476.531 217.142 475.977 217.142C475.387 217.142 474.772 216.908 474.131 216.44C474.113 217.515 473.983 218.572 473.741 219.612C473.515 220.669 473.203 221.623 472.805 222.472C472.406 223.321 471.955 223.997 471.453 224.5C470.967 225.02 470.465 225.28 469.945 225.28ZM474.339 208.484C475.396 207.496 476.297 206.534 477.043 205.598C477.788 204.662 478.351 203.839 478.733 203.128C479.131 202.4 479.331 201.889 479.331 201.594C479.331 201.455 479.261 201.386 479.123 201.386C478.707 201.386 478.23 201.707 477.693 202.348C477.155 202.972 476.601 203.821 476.029 204.896C475.457 205.971 474.893 207.167 474.339 208.484ZM470.673 223.668C470.915 223.668 471.175 223.417 471.453 222.914C471.73 222.411 471.99 221.779 472.233 221.016C472.475 220.253 472.675 219.456 472.831 218.624C472.987 217.809 473.065 217.081 473.065 216.44C473.065 215.937 473.004 215.495 472.883 215.114C472.779 214.715 472.588 214.273 472.311 213.788C471.704 215.591 471.21 217.272 470.829 218.832C470.447 220.392 470.257 221.631 470.257 222.55C470.257 223.295 470.395 223.668 470.673 223.668ZM490.461 219.274C489.403 219.274 488.589 218.988 488.017 218.416C487.445 217.861 487.115 217.185 487.029 216.388C486.283 217.255 485.434 217.931 484.481 218.416C483.527 218.901 482.565 219.144 481.595 219.144C480.468 219.144 479.601 218.841 478.995 218.234C478.405 217.645 478.111 216.908 478.111 216.024C478.111 215.261 478.301 214.455 478.683 213.606C479.081 212.757 479.61 211.959 480.269 211.214C480.927 210.451 481.655 209.836 482.453 209.368C483.25 208.883 484.065 208.64 484.897 208.64C485.347 208.64 485.763 208.753 486.145 208.978C486.543 209.203 486.743 209.663 486.743 210.356C486.743 210.997 486.552 211.604 486.171 212.176C485.789 212.731 485.278 213.225 484.637 213.658C483.995 214.091 483.285 214.447 482.505 214.724C481.742 215.001 480.971 215.183 480.191 215.27C480.173 215.339 480.156 215.435 480.139 215.556C480.139 215.66 480.139 215.781 480.139 215.92C480.139 216.232 480.191 216.553 480.295 216.882C480.399 217.194 480.589 217.463 480.867 217.688C481.161 217.913 481.595 218.026 482.167 218.026C483.085 218.026 483.978 217.731 484.845 217.142C485.729 216.535 486.5 215.781 487.159 214.88C487.315 214.169 487.592 213.467 487.991 212.774C488.389 212.081 488.875 211.448 489.447 210.876C490.036 210.304 490.669 209.845 491.345 209.498C492.038 209.151 492.74 208.978 493.451 208.978C493.919 208.978 494.343 209.091 494.725 209.316C495.123 209.541 495.323 210.009 495.323 210.72C495.323 211.569 495.019 212.323 494.413 212.982C493.823 213.641 493.052 214.178 492.099 214.594C491.163 214.993 490.166 215.253 489.109 215.374C489.091 215.461 489.074 215.556 489.057 215.66C489.057 215.747 489.057 215.859 489.057 215.998C489.057 216.31 489.1 216.631 489.187 216.96C489.291 217.289 489.481 217.575 489.759 217.818C490.036 218.043 490.452 218.156 491.007 218.156C491.752 218.156 492.497 217.939 493.243 217.506C494.005 217.073 494.707 216.509 495.349 215.816C496.007 215.105 496.545 214.343 496.961 213.528L497.429 213.892C496.961 214.932 496.354 215.859 495.609 216.674C494.881 217.471 494.075 218.104 493.191 218.572C492.307 219.04 491.397 219.274 490.461 219.274ZM480.477 214.438C480.962 214.265 481.473 214.039 482.011 213.762C482.565 213.467 483.085 213.138 483.571 212.774C484.073 212.393 484.481 211.994 484.793 211.578C485.105 211.145 485.261 210.703 485.261 210.252C485.261 210.113 485.226 210.009 485.157 209.94C485.105 209.853 484.983 209.81 484.793 209.81C484.307 209.81 483.77 210.044 483.181 210.512C482.609 210.963 482.08 211.543 481.595 212.254C481.109 212.965 480.737 213.693 480.477 214.438ZM489.395 214.438C489.845 214.282 490.322 214.091 490.825 213.866C491.345 213.623 491.83 213.346 492.281 213.034C492.731 212.722 493.104 212.375 493.399 211.994C493.693 211.595 493.841 211.162 493.841 210.694C493.841 210.33 493.676 210.148 493.347 210.148C492.861 210.148 492.359 210.356 491.839 210.772C491.319 211.171 490.842 211.699 490.409 212.358C489.975 212.999 489.637 213.693 489.395 214.438Z" fill="white"/>
<g filter="url(#filter0_d_360_22)">
<path d="M34.7975 102.949C37.461 102.22 39.0292 99.4696 38.3002 96.8061C37.5713 94.1426 34.8212 92.5744 32.1577 93.3033L34.7975 102.949ZM114.616 102.521L119.59 103.031L114.616 102.521ZM9.24558 105.35L4.36765 104.252L4.31757 104.474L4.28794 104.7L9.24558 105.35ZM49.4392 199.04L50.0868 194.082L49.4392 199.04ZM114.616 157.955L109.701 157.039L109.672 157.196L109.652 157.355L114.616 157.955ZM122.393 149.828L121.852 144.858L122.393 149.828ZM32.1577 93.3033C29.2074 94.1108 25.7186 95.0356 22.7311 96.0168C21.2297 96.5099 19.7408 97.0533 18.4309 97.6509C17.2185 98.204 15.7351 98.9886 14.5782 100.107C13.3832 101.262 11.5813 103.856 12.8855 107.123C13.8488 109.535 16.0534 110.776 17.3685 111.406C20.3926 112.854 25.4272 114.079 32.6793 115.252L34.2758 105.38C30.7307 104.807 27.9657 104.254 25.8529 103.728C23.6996 103.192 22.3989 102.727 21.6874 102.386C21.3363 102.218 21.2722 102.148 21.3566 102.217C21.4279 102.276 21.8668 102.649 22.1726 103.415C22.3324 103.815 22.4379 104.282 22.4462 104.79C22.4544 105.296 22.3648 105.751 22.2315 106.132C21.9795 106.85 21.6014 107.226 21.5289 107.297C21.4398 107.383 21.453 107.349 21.6684 107.218C21.8695 107.096 22.1674 106.938 22.5813 106.749C23.4168 106.368 24.5175 105.956 25.8514 105.518C28.5345 104.636 31.6992 103.797 34.7975 102.949L32.1577 93.3033ZM32.6793 115.252C47.8078 117.699 68.4203 117.291 85.2152 115.522C93.6338 114.635 101.304 113.385 107.004 111.905C109.822 111.174 112.389 110.328 114.374 109.333C115.358 108.84 116.423 108.202 117.327 107.358C118.197 106.547 119.377 105.112 119.59 103.031L109.642 102.011C109.775 100.72 110.477 100.074 110.507 100.045C110.573 99.9838 110.437 100.121 109.895 100.393C108.829 100.927 107.043 101.564 104.491 102.226C99.4543 103.534 92.3236 104.718 84.1678 105.577C67.8137 107.299 48.1808 107.629 34.2758 105.38L32.6793 115.252ZM119.59 103.031C119.826 100.73 118.861 98.814 117.975 97.5608C117.037 96.2353 115.769 95.048 114.374 93.9996C111.567 91.8893 107.606 89.8675 102.682 88.1522C92.7809 84.7033 78.3426 82.2696 59.7306 83.1996L60.2296 93.1871C77.7614 92.3111 90.888 94.6333 99.3925 97.5957C103.671 99.086 106.624 100.684 108.366 101.994C109.247 102.655 109.664 103.128 109.811 103.336C110.01 103.617 109.53 103.107 109.642 102.011L119.59 103.031ZM59.7306 83.1996C41.2909 84.1209 28.3095 87.0682 19.6025 90.719C15.2496 92.5441 11.8412 94.5969 9.34607 96.7662C6.92174 98.874 5.00847 101.405 4.36765 104.252L14.1235 106.448C14.1186 106.469 14.3472 105.669 15.9073 104.313C17.3968 103.018 19.8155 101.473 23.4693 99.9411C30.7757 96.8776 42.5256 94.0717 60.2296 93.1871L59.7306 83.1996ZM4.28794 104.7C3.46356 110.993 4.47935 120.075 6.51863 129.779C8.5903 139.637 11.8358 150.671 15.8322 161.095C19.8161 171.487 24.624 181.478 29.8905 189.138C32.5235 192.968 35.3697 196.361 38.4064 198.938C41.4202 201.495 44.9093 203.491 48.7916 203.998L50.0868 194.082C48.7845 193.912 47.0404 193.149 44.8766 191.313C42.7357 189.496 40.46 186.86 38.1309 183.473C33.4733 176.698 28.9967 167.499 25.1695 157.516C21.3549 147.565 18.263 137.04 16.3049 127.722C14.3144 118.25 13.608 110.542 14.2032 105.999L4.28794 104.7ZM119.532 158.871C119.936 156.703 120.128 155.516 120.346 154.607C120.573 153.66 120.614 154.088 120.097 154.633C119.456 155.31 118.808 155.322 119.395 155.212C120.078 155.083 120.977 155.012 122.934 154.799L121.852 144.858C120.353 145.021 118.737 145.16 117.546 145.384C116.257 145.627 114.375 146.134 112.839 147.755C111.427 149.244 110.912 151.066 110.623 152.27C110.324 153.513 110.038 155.234 109.701 157.039L119.532 158.871ZM122.934 154.799C128.678 154.174 132.413 158.169 131.847 162.94C131.221 168.228 124.969 177.648 102.668 184.735L105.697 194.265C129.022 186.852 140.429 175.505 141.778 164.116C143.188 152.211 133.215 143.621 121.852 144.858L122.934 154.799ZM48.7916 203.998C52.3068 204.457 60.1482 204.661 67.5099 204.663C74.8195 204.666 82.5534 204.473 85.7568 203.982L84.2432 194.097C81.9466 194.449 75.0397 194.666 67.5136 194.663C60.0398 194.66 52.8508 194.443 50.0868 194.082L48.7916 203.998ZM85.7568 203.982C87.6988 203.685 95.7008 203.775 103.124 197.752C110.627 191.664 116.973 180.115 119.58 158.555L109.652 157.355C107.201 177.63 101.488 186.202 96.8231 189.987C92.0778 193.837 87.8012 193.553 84.2432 194.097L85.7568 203.982Z" fill="white"/>
</g>
<path d="M31.9561 0C30.1228 3 29.8561 15.9 43.4561 43.5C56.9621 70.9092 41.6704 99.9293 32.154 111.266C32.0878 111.345 32.0218 111.423 31.9561 111.5C32.0218 111.423 32.0878 111.345 32.154 111.266C39.1453 102.876 49.0135 78.6997 33.9561 47C18.7561 15 26.2895 2.33333 31.9561 0Z" fill="white" fill-opacity="0.5"/>
<path d="M45.9713 9C44.6611 11.1256 44.4705 20.2655 54.19 39.8206C63.8424 59.2406 52.9138 79.8019 46.1128 87.8341C46.0654 87.8904 46.0183 87.9457 45.9713 88C46.0183 87.9453 46.0654 87.89 46.1128 87.8341C51.1092 81.8897 58.1617 64.7603 47.4007 42.3004C36.5377 19.6278 41.9215 10.6532 45.9713 9Z" fill="white" fill-opacity="0.5"/>
<path d="M202.7 179H186.3V168.1H168.2V179H151.9V168.1H145.7V151.8H151.9C151.9 150.867 151.9 149.933 151.9 149C151.9 148.067 151.9 147.133 151.9 146.2C151.9 145.267 151.9 144.333 151.9 143.4C151.9 142.467 151.9 141.533 151.9 140.6C151.9 133.667 154.367 127.7 159.3 122.7C164.233 117.7 170.233 115.2 177.3 115.2C184.233 115.2 190.2 117.7 195.2 122.7C200.2 127.7 202.7 133.667 202.7 140.6V179ZM186.3 151.8C186.3 150.867 186.3 149.933 186.3 149C186.3 148.067 186.3 147.133 186.3 146.2C186.3 145.267 186.3 144.333 186.3 143.4C186.3 142.467 186.3 141.533 186.3 140.6C186.3 138.133 185.433 136.033 183.7 134.3C181.967 132.5 179.833 131.6 177.3 131.6C174.833 131.6 172.7 132.5 170.9 134.3C169.1 136.033 168.2 138.133 168.2 140.6V151.8H186.3ZM254.752 156H227.152V179H210.852V156H204.852V139.6H210.852V116.7H254.752V133.1H227.152V139.6H254.752V156ZM307.095 156H279.495V179H263.195V156H257.195V139.6H263.195V116.7H307.095V133.1H279.495V139.6H307.095V156ZM359.439 179H315.539V156.1H309.539V139.7H315.539V116.7H359.439V133.1H331.839V139.7H359.439V156.1H331.839V162.6H359.439V179ZM379.202 179H362.802V116.7H379.202V179ZM442.2 179H425.9V133.1C423.433 133.1 420.933 133.1 418.4 133.1C415.867 133.1 413.333 133.1 410.8 133.1C407.6 133.1 404.833 134.233 402.5 136.5C400.233 138.767 399.1 141.5 399.1 144.7C399.1 148.367 399.1 152.067 399.1 155.8C399.1 159.533 399.1 163.333 399.1 167.2C399.1 169.133 399.1 171.1 399.1 173.1C399.1 175.033 399.1 177 399.1 179H382.7V116.7H399.1V119.3C400.9 118.433 402.767 117.8 404.7 117.4C406.7 116.933 408.733 116.7 410.8 116.7C412.2 116.7 413.6 116.7 415 116.7C416.4 116.7 417.833 116.7 419.3 116.7C420.7 116.7 422.1 116.7 423.5 116.7C424.9 116.7 426.3 116.7 427.7 116.7C431.767 116.7 435.2 118.133 438 121C440.8 123.8 442.2 127.233 442.2 131.3C442.2 131.967 442.2 132.633 442.2 133.3C442.2 133.9 442.2 134.533 442.2 135.2C442.2 142.333 442.2 149.533 442.2 156.8C442.2 164 442.2 171.4 442.2 179ZM495.181 179H451.281V156.1H445.281V139.7H451.281V116.7H495.181V133.1H467.581V139.7H495.181V156.1H467.581V162.6H495.181V179Z" fill="white"/>
<path d="M87.028 73H77.452C76.3507 73 75.3893 72.5987 74.568 71.796C73.7653 70.9933 73.364 70.0413 73.364 68.94V59.672C73.364 58.552 73.7653 57.5907 74.568 56.788C75.3893 55.9667 76.3507 55.556 77.452 55.556H87.028V60.148H77.956V68.408H87.028V73ZM104.229 73H99.637V69.948H94.569V73H90.005V69.948H88.269V65.384H90.005C90.005 65.1227 90.005 64.8613 90.005 64.6C90.005 64.3387 90.005 64.0773 90.005 63.816C90.005 63.5547 90.005 63.2933 90.005 63.032C90.005 62.7707 90.005 62.5093 90.005 62.248C90.005 60.3067 90.6956 58.636 92.077 57.236C93.4583 55.836 95.1383 55.136 97.117 55.136C99.0583 55.136 100.729 55.836 102.129 57.236C103.529 58.636 104.229 60.3067 104.229 62.248V73ZM99.637 65.384C99.637 65.1227 99.637 64.8613 99.637 64.6C99.637 64.3387 99.637 64.0773 99.637 63.816C99.637 63.5547 99.637 63.2933 99.637 63.032C99.637 62.7707 99.637 62.5093 99.637 62.248C99.637 61.5573 99.3943 60.9693 98.909 60.484C98.4236 59.98 97.8263 59.728 97.117 59.728C96.4263 59.728 95.829 59.98 95.325 60.484C94.821 60.9693 94.569 61.5573 94.569 62.248V65.384H99.637ZM118.803 66.56H111.075V73H106.511V66.56H104.831V61.968H106.511V55.556H118.803V60.148H111.075V61.968H118.803V66.56ZM133.46 73H121.168V66.588H119.488V61.996H121.168V55.556H133.46V60.148H125.732V61.996H133.46V66.588H125.732V68.408H133.46V73ZM132.172 52.812L125.76 55.108L125.116 53.288L131.5 50.992L132.172 52.812Z" fill="white"/>
<defs>
<filter id="filter0_d_360_22" x="0.00100708" y="83" width="145.91" height="129.663" filterUnits="userSpaceOnUse" color-interpolation-filters="sRGB">
<feFlood flood-opacity="0" result="BackgroundImageFix"/>
<feColorMatrix in="SourceAlpha" type="matrix" values="0 0 0 0 0 0 0 0 0 0 0 0 0 0 0 0 0 0 127 0" result="hardAlpha"/>
<feOffset dy="4"/>
<feGaussianBlur stdDeviation="2"/>
<feComposite in2="hardAlpha" operator="out"/>
<feColorMatrix type="matrix" values="0 0 0 0 0 0 0 0 0 0 0 0 0 0 0 0 0 0 0.25 0"/>
<feBlend mode="normal" in2="BackgroundImageFix" result="effect1_dropShadow_360_22"/>
<feBlend mode="normal" in="SourceGraphic" in2="effect1_dropShadow_360_22" result="shape"/>
</filter>
</defs>
</svg>
